# xmcd
#
# Track frame offsets:
#	150
#	16863
#	23589
#	42667
#	61226
#	71047
#	87888
#	104250
#	118915
#	123986
#	145174
#	164535
#	181622
#	196995
#	201741
#	222126
#	242036
#	247261
#	262703
#	278389
#	292667
#	308980
#
# Disc length: 4556 seconds
# Revision: 0
# Processed by: cddbd v1.5.2PL0 Copyright (c) Steve Scherf et al.
# Submitted via: dBpowerAMP V12.0
#
DISCID=3c11ca16
DTITLE=Various Artist - The Greatest Story Ever Told
DYEAR=2008
DGENRE=Hip Hop
TTITLE0=David Banner - So Long
TTITLE1=David Banner - G.S.E.T. Intro
TTITLE2=David Banner featuring UGK and Kandi - Suicide Doors
TTITLE3=David Banner featuring Akon, Lil Wayne and Snoop Dogg - Speaker
TTITLE4=David Banner - T.I. Speaks (Interlude)
TTITLE5=David Banner featuring Chris Brown and Yung Joc - Get Like Me
TTITLE6=David Banner featuring Lil Wayne - Shawty Say
TTITLE7=David Banner - A Girl
TTITLE8=David Banner - Syrup Sipping (Banner Beat Break)
TTITLE9=David Banner featuring Marcus - Hold On
TTITLE10=David Banner - Cadillac On 22's Part 2
TTITLE11=David Banner - Uncle Swac (Interlude)
TTITLE12=David Banner featuring Carl Thomas - I Get By
TTITLE13=David Banner - Freedom (Interlude)
TTITLE14=David Banner - B.A.N. (The Love Song)
TTITLE15=David Banner featuring Jim Jones - Point 'Em To The Door
TTITLE16=David Banner - Marz (Banner Beat Break)
TTITLE17=David Banner featuring Chamillionaire - Ball With Me
TTITLE18=David Banner - K.O.
TTITLE19=David Banner featuring Jazze Pha - Fly
TTITLE20=David Banner - Faith
TTITLE21=David Banner - Hidden Track
EXTD=
EXTT0=
EXTT1=
EXTT2=
EXTT3=
EXTT4=
EXTT5=
EXTT6=
EXTT7=
EXTT8=
EXTT9=
EXTT10=
EXTT11=
EXTT12=
EXTT13=
EXTT14=
EXTT15=
EXTT16=
EXTT17=
EXTT18=
EXTT19=
EXTT20=
EXTT21=
PLAYORDER=
